<svg version="1.1" id="Layer_1" xmlns="http://www.w3.org/2000/svg" xmlns:xlink="http://www.w3.org/1999/xlink" x="0px" y="0px"
	 width="100%" viewBox="0 0 247 148" enable-background="new 0 0 247 148" xml:space="preserve">
<path fill="#EE1C25" opacity="1.000000" stroke="none" 
	d="
M181.000000,149.000000 
	C120.704559,149.000000 60.909111,149.000000 1.056833,149.000000 
	C1.056833,99.735847 1.056833,50.471619 1.056833,1.103693 
	C83.211952,1.103693 165.424072,1.103693 247.818100,1.103693 
	C247.818100,50.332775 247.818100,99.666344 247.818100,149.000000 
	C225.805222,149.000000 203.652618,149.000000 181.000000,149.000000 
M32.594185,33.196899 
	C28.416941,33.680260 24.239695,34.163624 19.154531,34.752045 
	C22.748817,37.411114 25.712341,39.706783 28.784418,41.846607 
	C31.726517,43.895893 32.856464,46.275127 31.476307,49.875168 
	C30.182390,53.250263 29.383549,56.815155 28.366848,60.296528 
	C32.746696,58.356316 36.193970,56.063663 39.404079,53.476715 
	C41.465603,51.815380 43.037106,51.860271 45.075974,53.484264 
	C48.395786,56.128563 51.919277,58.517151 55.356812,61.013653 
	C54.941986,56.500019 53.857647,52.531284 52.384159,48.712715 
	C51.291557,45.881233 51.916145,44.154011 54.446659,42.525631 
	C57.937820,40.279064 61.196960,37.671947 64.555481,35.219261 
	C60.210033,34.156597 56.412239,34.008541 52.631573,34.199589 
	C49.080845,34.379021 47.097424,32.950497 46.130341,29.521797 
	C45.100464,25.870462 43.711182,22.320498 42.027035,17.408640 
	C40.360279,22.580511 39.035404,26.170660 38.073204,29.855511 
	C37.402409,32.424404 36.055088,33.517265 32.594185,33.196899 
M90.331184,18.332943 
	C88.771973,16.005619 87.212761,13.678293 85.992699,11.857192 
	C83.384369,12.453938 80.823784,13.039760 78.101265,13.662629 
	C78.520065,14.500934 79.158043,15.777956 79.784302,17.031523 
	C78.933723,18.367414 78.134331,19.622910 77.768692,20.197170 
	C80.483620,21.423279 82.863342,22.498003 85.606644,23.736925 
	C83.624290,19.226307 87.870491,20.106436 90.331184,18.332943 
M79.123886,75.759628 
	C78.554314,76.669899 77.984734,77.580162 77.861435,77.777214 
	C80.614723,78.943542 83.107086,79.999344 84.778786,80.707504 
	C86.496132,78.651329 88.168015,76.649597 89.290703,75.305412 
	C87.955116,73.112679 86.644478,70.960907 85.569954,69.196770 
	C83.135696,69.780991 80.375450,70.443443 77.711128,71.082878 
	C78.135101,72.048988 78.825768,73.622803 79.123886,75.759628 
M103.483002,59.495632 
	C104.450867,58.465050 105.418732,57.434471 105.894539,56.927834 
	C103.573273,55.222679 101.302750,53.554806 99.688171,52.368782 
	C97.888313,53.852589 95.854874,55.528969 94.180916,56.908985 
	C94.862709,58.925270 95.715904,61.448452 96.295410,63.162262 
	C98.743599,63.162262 101.435112,63.162262 104.179321,63.162262 
	C104.002213,62.404690 103.743568,61.298328 103.483002,59.495632 
M92.805176,34.465237 
	C94.967628,36.262360 97.130081,38.059483 99.074242,39.675190 
	C100.841927,38.883450 103.311043,37.777546 105.249687,36.909237 
	C104.833725,34.563354 104.351189,31.842030 104.026627,30.011625 
	C101.370087,29.370312 98.783531,28.745893 97.143059,28.349869 
	C95.925026,30.158381 94.625282,32.088219 92.805176,34.465237 
z"/>
<path fill="#FEF503" opacity="1.000000" stroke="none" 
	d="
M33.033257,33.181290 
	C36.055088,33.517265 37.402409,32.424404 38.073204,29.855511 
	C39.035404,26.170660 40.360279,22.580511 42.027035,17.408640 
	C43.711182,22.320498 45.100464,25.870462 46.130341,29.521797 
	C47.097424,32.950497 49.080845,34.379021 52.631573,34.199589 
	C56.412239,34.008541 60.210033,34.156597 64.555481,35.219261 
	C61.196960,37.671947 57.937820,40.279064 54.446659,42.525631 
	C51.916145,44.154011 51.291557,45.881233 52.384159,48.712715 
	C53.857647,52.531284 54.941986,56.500019 55.356812,61.013653 
	C51.919277,58.517151 48.395786,56.128563 45.075974,53.484264 
	C43.037106,51.860271 41.465603,51.815380 39.404079,53.476715 
	C36.193970,56.063663 32.746696,58.356316 28.366848,60.296528 
	C29.383549,56.815155 30.182390,53.250263 31.476307,49.875168 
	C32.856464,46.275127 31.726517,43.895893 28.784418,41.846607 
	C25.712341,39.706783 22.748817,37.411114 19.154531,34.752045 
	C24.239695,34.163624 28.416941,33.680260 33.033257,33.181290 
z"/>
<path fill="#FCE308" opacity="1.000000" stroke="none" 
	d="
M90.202286,18.638416 
	C87.870491,20.106436 83.624290,19.226307 85.606644,23.736925 
	C82.863342,22.498003 80.483620,21.423279 77.768692,20.197170 
	C78.134331,19.622910 78.933723,18.367414 79.784302,17.031523 
	C79.158043,15.777956 78.520065,14.500934 78.101265,13.662629 
	C80.823784,13.039760 83.384369,12.453938 85.992699,11.857192 
	C87.212761,13.678293 88.771973,16.005619 90.202286,18.638416 
z"/>
<path fill="#FCE308" opacity="1.000000" stroke="none" 
	d="
M79.320160,75.478119 
	C78.825768,73.622803 78.135101,72.048988 77.711128,71.082878 
	C80.375450,70.443443 83.135696,69.780991 85.569954,69.196770 
	C86.644478,70.960907 87.955116,73.112679 89.290703,75.305412 
	C88.168015,76.649597 86.496132,78.651329 84.778786,80.707504 
	C83.107086,79.999344 80.614723,78.943542 77.861435,77.777214 
	C77.984734,77.580162 78.554314,76.669899 79.320160,75.478119 
z"/>
<path fill="#FDE907" opacity="1.000000" stroke="none" 
	d="
M103.483963,59.843800 
	C103.743568,61.298328 104.002213,62.404690 104.179321,63.162262 
	C101.435112,63.162262 98.743599,63.162262 96.295410,63.162262 
	C95.715904,61.448452 94.862709,58.925270 94.180916,56.908985 
	C95.854874,55.528969 97.888313,53.852589 99.688171,52.368782 
	C101.302750,53.554806 103.573273,55.222679 105.894539,56.927834 
	C105.418732,57.434471 104.450867,58.465050 103.483963,59.843800 
z"/>
<path fill="#FDE907" opacity="1.000000" stroke="none" 
	d="
M93.065361,34.241646 
	C94.625282,32.088219 95.925026,30.158381 97.143059,28.349869 
	C98.783531,28.745893 101.370087,29.370312 104.026627,30.011625 
	C104.351189,31.842030 104.833725,34.563354 105.249687,36.909237 
	C103.311043,37.777546 100.841927,38.883450 99.074242,39.675190 
	C97.130081,38.059483 94.967628,36.262360 93.065361,34.241646 
z"/>
</svg>