<svg version="1.1" id="Layer_1" xmlns="http://www.w3.org/2000/svg" xmlns:xlink="http://www.w3.org/1999/xlink" x="0px" y="0px"
	 width="100%" viewBox="0 0 275 183" enable-background="new 0 0 275 183" xml:space="preserve">
<path fill="#016C35" opacity="1.000000" stroke="none" 
	d="
M1.000000,183.000000 
	C1.000000,122.374893 1.000000,61.749783 1.000000,1.062338 
	C92.562279,1.062338 184.124619,1.062338 276.000000,1.062338 
	C276.000000,61.353867 276.000000,121.708275 275.531342,182.532745 
	C183.708450,183.001862 92.354225,183.000931 1.000000,183.000000 
M157.749069,92.330734 
	C158.094528,92.227348 158.440002,92.123970 159.522446,91.211319 
	C158.351395,91.199905 157.180359,91.188484 155.584320,91.117134 
	C155.372025,91.491280 155.159744,91.865425 154.947464,92.239571 
	C155.333694,92.262802 155.719925,92.286041 156.562439,92.507431 
	C156.929321,92.542267 157.218430,92.408737 157.749069,92.330734 
M74.412079,59.546993 
	C74.340385,60.020836 74.268692,60.494682 73.805748,61.600056 
	C72.756935,61.095631 71.708122,60.591209 69.418335,59.489948 
	C70.656296,62.346706 71.480171,64.247917 72.093758,65.663864 
	C74.572433,64.638374 76.210808,63.960537 77.970116,63.936146 
	C78.995903,64.619278 80.021698,65.302406 81.569244,66.355667 
	C82.168335,68.173119 80.172256,70.677834 82.967484,72.582794 
	C82.933784,73.041512 82.900085,73.500229 82.403885,74.108032 
	C82.065178,74.315002 81.980064,74.598198 81.500946,74.916191 
	C78.780136,74.176132 77.352837,75.308182 76.999390,78.000610 
	C76.999390,78.000610 77.016823,78.010674 76.518898,78.400833 
	C74.733948,79.411324 71.624321,80.211563 71.424026,81.473557 
	C70.917793,84.663078 71.719818,88.060249 72.109177,92.703682 
	C74.009689,90.770172 75.142693,89.617500 76.611801,88.275040 
	C76.611801,88.275040 76.955315,88.451080 77.258110,89.058296 
	C77.607681,89.335464 77.957245,89.612633 78.963249,90.160477 
	C90.610092,94.893082 99.091156,88.254807 99.746727,73.270393 
	C102.923698,73.270393 106.222794,73.610107 109.370522,73.069138 
	C110.350304,72.900749 111.041794,70.392487 111.600266,68.858910 
	C111.757607,68.426872 110.975082,67.652580 110.429520,66.694283 
	C109.943069,68.496002 109.599915,69.766975 109.035866,71.856087 
	C107.843857,70.066559 107.152908,69.029251 106.934044,68.700676 
	C106.074677,69.909714 105.098083,71.283684 104.434425,72.217384 
	C98.041794,67.565643 97.244316,61.828381 98.458549,57.154644 
	C99.511169,53.103001 97.894470,51.036270 97.201477,49.310024 
	C94.525116,49.655136 92.473328,49.919708 89.798004,49.909576 
	C88.691833,49.251778 87.585670,48.593983 86.666122,48.047161 
	C85.599083,48.873783 84.609032,49.640762 83.696182,50.305836 
	C83.696182,50.305836 83.577095,50.352341 83.552376,49.834236 
	C83.349426,49.562035 83.146484,49.289829 82.439896,48.669331 
	C81.965698,48.554428 81.491501,48.439526 80.534248,48.633015 
	C80.024841,49.430584 79.515434,50.228153 78.254105,51.019764 
	C77.386887,52.352348 76.519669,53.684933 75.206352,55.432274 
	C75.110649,56.232941 75.014946,57.033604 74.659370,58.139828 
	C74.499641,58.403233 74.517899,58.653606 74.412079,59.546993 
M162.516388,77.776344 
	C162.642776,78.226768 162.769150,78.677185 162.895538,79.127609 
	C162.588974,78.741943 162.282394,78.356285 162.041580,77.191254 
	C159.932617,72.982079 157.704330,68.826904 155.764618,64.541122 
	C154.782913,62.372055 154.095123,60.006924 153.682831,57.658737 
	C153.136353,54.546215 152.989349,51.363552 152.670700,48.211025 
	C152.081131,48.081684 151.491547,47.952339 150.901962,47.822998 
	C150.156433,49.021038 149.410904,50.219074 149.105301,50.710190 
	C146.443146,49.630657 144.407532,48.805199 141.806198,48.255306 
	C141.518036,48.556313 141.229874,48.857315 140.401855,48.910496 
	C139.610367,48.614929 138.818893,48.319363 138.027405,48.023796 
	C137.764450,49.381020 137.228683,50.751652 137.294586,52.092712 
	C137.437958,55.009544 140.741592,57.973030 136.051880,62.063564 
	C134.666122,56.446690 133.508560,51.754673 132.370544,47.141926 
	C131.687927,47.240829 131.466171,47.211281 131.418442,47.288830 
	C129.960602,49.657715 129.400681,51.789177 131.036026,54.628201 
	C131.795959,55.947502 130.740173,58.643200 129.885773,60.415203 
	C129.489609,61.236855 127.607689,61.342136 126.399323,61.772179 
	C125.897629,60.134541 125.146263,58.525299 124.955971,56.852245 
	C124.704971,54.645317 124.894249,52.388317 124.894249,50.152843 
	C124.464394,49.997032 124.034531,49.841217 123.604675,49.685402 
	C121.573997,53.263741 119.543320,56.842079 117.527229,60.394718 
	C116.441223,59.836178 115.494232,59.349136 114.547249,58.862095 
	C114.354866,59.062485 114.162491,59.262878 113.970108,59.463268 
	C115.014732,60.854759 116.059357,62.246250 117.393959,64.242195 
	C117.538696,65.518585 117.683426,66.794975 117.273964,67.826897 
	C116.515045,67.463432 115.756126,67.099976 114.997208,66.736519 
	C114.880424,68.041245 114.253433,69.581261 114.729134,70.612747 
	C117.976662,77.654518 117.965836,77.910782 111.422935,81.566444 
	C111.187920,80.710533 110.954185,79.859291 111.099724,80.389336 
	C107.511543,83.501854 103.640381,86.859833 99.742455,90.241020 
	C101.307747,89.877113 103.025902,89.260582 104.777977,89.140968 
	C106.111664,89.049911 108.076233,89.110199 108.745789,89.930794 
	C111.894806,93.790138 115.214272,92.638260 118.361809,90.441742 
	C120.719170,88.796661 122.652313,86.543678 124.775169,84.560600 
	C131.304245,92.435165 137.465332,94.352592 139.765121,89.253258 
	C138.085602,88.154678 136.406097,87.056099 133.394058,85.085922 
	C138.354980,83.430611 141.894638,82.300072 145.395020,81.058731 
	C146.975143,80.498390 148.477036,79.717461 150.640717,78.547668 
	C151.470825,78.988800 152.936081,79.336761 153.016907,79.887810 
	C153.307648,81.869774 153.131058,83.920288 153.131058,85.944901 
	C153.557999,85.950996 153.984924,85.957085 154.411865,85.963173 
	C154.411865,80.214882 154.411865,74.466599 154.411865,68.718307 
	C154.756424,68.685936 155.100998,68.653564 155.445557,68.621193 
	C157.623337,71.736984 159.801117,74.852776 162.516388,77.776344 
M165.909943,49.846706 
	C163.112885,47.186604 162.631241,49.851200 162.789078,51.554234 
	C163.254379,56.575386 164.154694,61.556225 164.714752,66.909447 
	C164.809601,67.272446 164.904449,67.635445 164.926422,68.931419 
	C164.957581,76.914993 167.789749,85.636292 157.828522,90.988068 
	C158.560852,91.454193 159.293167,91.920319 160.025497,92.386444 
	C162.141525,90.266457 164.257538,88.146469 166.935318,86.192955 
	C167.711868,86.768600 168.488419,87.344254 169.768936,88.320114 
	C171.186172,89.571167 172.603394,90.822220 174.312607,92.331017 
	C175.690262,90.293449 176.956589,88.913170 177.654510,87.288689 
	C179.248459,83.578568 180.953308,82.270767 184.331711,85.733360 
	C185.058472,86.478210 188.246796,86.317810 188.604935,85.656189 
	C189.877167,83.305931 190.769897,80.607864 191.138641,77.948929 
	C191.550003,74.982742 191.232971,71.915535 191.232971,67.829987 
	C197.286499,71.550995 195.142349,77.035271 196.600861,82.427193 
	C197.100067,79.291779 197.405594,77.372955 197.827957,74.720261 
	C199.615189,76.942368 200.836838,78.461258 202.183350,80.627182 
	C204.731857,81.987221 203.606110,83.604340 202.276718,84.893631 
	C200.111649,86.993355 197.740875,88.880989 195.034241,91.224022 
	C200.619064,91.058830 204.464615,88.864494 205.922287,84.125511 
	C206.969284,80.721680 207.200439,76.940872 207.117386,73.343895 
	C206.979462,67.370720 206.364670,61.403831 205.812653,55.447086 
	C205.561356,52.735329 204.980453,50.054115 204.549057,47.359047 
	C203.898819,47.425552 203.248566,47.492062 202.598312,47.558567 
	C202.380402,48.768028 201.876328,50.005920 201.993179,51.182129 
	C202.556320,56.850555 203.528915,62.488041 203.864609,68.165573 
	C204.057526,71.428596 203.314606,74.746956 202.812622,77.359695 
	C197.387634,71.206024 195.025406,64.131165 195.832199,55.878407 
	C196.103668,53.101566 195.404343,50.229820 195.148727,47.401455 
	C194.646255,47.314445 194.143799,47.227440 193.641327,47.140434 
	C193.192627,47.799603 192.743927,48.458767 191.740814,49.212193 
	C190.766052,48.829319 189.791290,48.446442 188.238403,47.955578 
	C187.098206,48.917297 185.958023,49.879017 184.802368,50.853767 
	C183.513763,49.799423 182.421707,48.905888 181.186249,47.895039 
	C179.131012,52.094978 181.966858,54.336304 184.086624,56.710602 
	C186.604279,59.530579 188.493256,62.448936 187.818771,66.503639 
	C187.284927,69.712868 187.019028,72.966660 186.673325,75.871513 
	C187.133606,76.420349 188.308105,77.202332 188.253510,77.886192 
	C188.144379,79.253189 187.361771,80.566414 186.857254,81.901833 
	C184.795227,80.878693 182.733200,79.855560 180.328781,78.662537 
	C179.488312,79.703499 178.473465,80.960449 176.853287,81.722260 
	C176.242111,79.812401 175.630936,77.902534 174.688354,75.234985 
	C173.893845,68.983749 173.099335,62.732517 172.794510,56.139858 
	C172.945526,56.010296 173.096558,55.880730 173.664307,55.521278 
	C172.841431,52.920116 172.018539,50.318958 171.248169,47.883839 
	C169.233887,49.607819 167.831863,50.807781 166.478592,51.611069 
	C166.393112,51.346512 166.236160,51.134960 165.909943,49.846706 
M100.916389,134.013260 
	C124.276421,134.062103 147.636444,134.110947 171.060150,134.677444 
	C171.319824,135.115219 171.579514,135.552994 172.003448,136.727066 
	C172.642929,137.080368 173.292618,137.754730 173.920242,137.734802 
	C177.942505,137.607025 181.992355,136.925812 185.966812,137.247055 
	C188.355026,137.440109 189.780426,137.767731 190.019821,134.853546 
	C190.245987,132.100555 189.194443,130.834213 186.373581,130.894302 
	C182.399002,130.978973 178.421280,130.915741 174.976395,130.915741 
	C174.500427,129.433823 174.113434,128.228943 173.726456,127.024071 
	C173.040039,128.250473 172.353622,129.476883 171.348007,131.273605 
	C143.924194,131.273605 115.986580,131.273605 88.048973,131.273605 
	C88.028015,131.482239 88.007057,131.690857 87.986099,131.899490 
	C89.651161,132.594406 91.316216,133.289337 93.545311,134.472717 
	C95.692871,134.369064 97.840424,134.265427 100.916389,134.013260 
M106.857521,57.871197 
	C108.717186,56.275860 110.827934,54.880451 112.326942,52.997925 
	C113.039497,52.103073 112.799561,50.238979 112.543541,48.899502 
	C112.455467,48.438702 110.715652,47.745247 110.246605,48.024651 
	C109.383591,48.538738 108.162003,50.007519 108.383537,50.532482 
	C109.800537,53.890366 107.350830,55.190083 105.480843,56.892559 
	C105.421265,56.946796 105.997505,57.699421 106.857521,57.871197 
M69.934227,57.643745 
	C70.017227,57.561638 70.172691,57.472775 70.165817,57.399040 
	C70.156128,57.295013 70.026291,57.202187 69.947823,57.104568 
	C69.919701,57.240910 69.891579,57.377247 69.934227,57.643745 
M165.312210,48.992222 
	C165.214355,48.907036 165.116486,48.821850 165.312210,48.992222 
z"/>
<path fill="#44865E" opacity="1.000000" stroke="none" 
	d="
M1.000000,183.500000 
	C92.354225,183.000931 183.708450,183.001862 275.531342,183.001404 
	C274.503326,183.333344 273.006775,183.957657 271.509918,183.958420 
	C181.339966,184.004837 91.169983,184.000000 1.000000,183.500000 
z"/>
<path fill="#EAF1ED" opacity="1.000000" stroke="none" 
	d="
M90.421532,50.184280 
	C92.473328,49.919708 94.525116,49.655136 97.201477,49.310024 
	C97.894470,51.036270 99.511169,53.103001 98.458549,57.154644 
	C97.244316,61.828381 98.041794,67.565643 104.434425,72.217384 
	C105.098083,71.283684 106.074677,69.909714 106.934044,68.700676 
	C107.152908,69.029251 107.843857,70.066559 109.035866,71.856087 
	C109.599915,69.766975 109.943069,68.496002 110.429520,66.694283 
	C110.975082,67.652580 111.757607,68.426872 111.600266,68.858910 
	C111.041794,70.392487 110.350304,72.900749 109.370522,73.069138 
	C106.222794,73.610107 102.923698,73.270393 99.746727,73.270393 
	C99.091156,88.254807 90.610092,94.893082 78.509033,89.679871 
	C77.688316,88.949875 77.321815,88.700478 76.955315,88.451080 
	C76.955315,88.451080 76.611801,88.275040 76.380661,88.070251 
	C76.438622,84.580528 76.727722,81.295601 77.016823,78.010674 
	C77.016823,78.010674 76.999390,78.000610 77.365913,77.870010 
	C79.116684,77.225159 80.666351,75.611847 81.100853,78.800316 
	C81.485519,81.623138 83.727692,82.993317 86.163033,81.859276 
	C89.018272,80.529694 91.446915,78.283989 94.098816,76.408615 
	C91.128220,75.440155 88.173698,75.312996 87.566467,74.053848 
	C86.902679,72.677422 88.295380,68.633545 88.991943,68.584305 
	C91.276649,68.422806 93.652206,69.546768 96.555153,70.328003 
	C96.353554,66.900314 96.128487,63.073597 95.936279,58.858650 
	C95.591713,57.101509 95.214294,55.732605 94.836868,54.363701 
	C94.236305,54.591854 93.635735,54.820011 93.035172,55.048164 
	C93.674187,56.289955 94.313210,57.531750 94.658142,59.035942 
	C93.719536,65.446503 91.594017,66.736855 86.998474,63.565796 
	C86.650040,63.376598 86.314316,63.383713 85.640129,63.647018 
	C84.899017,67.259254 84.496376,70.615295 83.786865,73.971336 
	C83.275452,73.967209 83.070915,73.963074 82.866386,73.958946 
	C82.900085,73.500229 82.933784,73.041512 83.012695,71.842331 
	C82.387772,69.396423 81.717628,67.690979 81.047485,65.985542 
	C80.021698,65.302406 78.995903,64.619278 77.948288,63.255623 
	C77.913422,62.100845 77.900391,61.626587 77.918762,60.721100 
	C77.184265,58.532413 76.418365,56.774967 75.652458,55.017521 
	C76.519669,53.684933 77.386887,52.352348 78.625748,51.430481 
	C79.415451,54.047028 79.833519,56.252853 80.251579,58.458679 
	C80.769196,58.366898 81.286812,58.275112 81.804428,58.183331 
	C81.542053,54.897095 81.279678,51.610859 81.017303,48.324623 
	C81.491501,48.439526 81.965698,48.554428 82.707001,49.104561 
	C83.175095,49.810638 83.376099,50.081490 83.577095,50.352341 
	C83.577095,50.352341 83.696182,50.305836 83.712250,50.652374 
	C83.800812,51.387505 83.873314,51.776100 83.949768,52.435246 
	C84.124725,53.095856 84.295731,53.485916 84.466728,53.875977 
	C84.634239,53.224880 84.801750,52.573784 85.089737,51.567459 
	C85.832390,52.803570 86.776649,54.348339 87.014778,55.995216 
	C87.660164,60.458691 88.172112,61.233673 91.682953,61.515091 
	C91.264977,57.737915 90.843254,53.961098 90.421532,50.184280 
M80.028732,86.722343 
	C86.838577,89.904709 95.508049,86.034477 96.562820,79.209175 
	C90.851776,82.430573 85.917885,90.316986 77.865807,82.443771 
	C78.412514,83.674377 78.959221,84.904991 80.028732,86.722343 
M83.137451,59.361645 
	C83.866394,59.679516 84.595345,59.997387 85.324287,60.315254 
	C85.435242,59.094292 85.546188,57.873329 85.657135,56.652363 
	C85.270531,56.576588 84.883919,56.500809 84.497314,56.425030 
	C84.029266,57.171329 83.561218,57.917625 83.137451,59.361645 
z"/>
<path fill="#EFF4F1" opacity="1.000000" stroke="none" 
	d="
M150.014435,79.036606 
	C148.477036,79.717461 146.975143,80.498390 145.395020,81.058731 
	C141.894638,82.300072 138.354980,83.430611 133.394058,85.085922 
	C136.406097,87.056099 138.085602,88.154678 139.760864,89.255554 
	C137.465332,94.352592 131.304245,92.435165 124.775169,84.560600 
	C122.652313,86.543678 120.719170,88.796661 118.361809,90.441742 
	C115.214272,92.638260 111.894806,93.790138 108.745789,89.930794 
	C108.076233,89.110199 106.111664,89.049911 104.777977,89.140968 
	C103.025902,89.260582 101.307747,89.877113 99.742455,90.241020 
	C103.640381,86.859833 107.511543,83.501854 111.099724,80.389336 
	C110.954185,79.859291 111.187920,80.710533 111.422935,81.566444 
	C117.965836,77.910782 117.976662,77.654518 114.729134,70.612747 
	C114.253433,69.581261 114.880424,68.041245 114.997208,66.736519 
	C115.756126,67.099976 116.515045,67.463432 117.639153,68.236145 
	C118.202667,69.392746 118.400993,70.140099 118.384598,71.172775 
	C121.759834,79.507240 115.360985,82.932434 110.705017,87.783340 
	C112.539879,88.396248 114.318298,88.729439 115.733040,88.159668 
	C123.224449,85.142570 124.611938,80.179916 120.744797,70.498459 
	C121.004074,68.134613 121.322205,66.148178 121.768326,64.508415 
	C123.724915,69.524460 125.553513,74.193832 127.101486,79.197556 
	C126.851456,83.240311 128.321259,85.845032 131.692947,86.632965 
	C133.230698,84.360352 134.558670,82.397804 136.052322,80.190384 
	C133.042587,79.767914 130.148056,79.361610 127.144371,78.611153 
	C130.209473,75.733841 133.383743,73.200699 136.684769,70.566391 
	C137.839294,68.975510 138.947952,65.919167 140.813751,65.351532 
	C142.358292,64.881638 144.796295,67.348549 146.838440,68.514290 
	C144.343765,71.102242 141.849091,73.690193 139.131607,76.509285 
	C142.251297,76.686241 146.122726,76.905838 149.991821,77.444046 
	C149.997787,78.187309 150.006104,78.611954 150.014435,79.036606 
z"/>
<path fill="#EAF1ED" opacity="1.000000" stroke="none" 
	d="
M202.058487,79.980156 
	C200.836838,78.461258 199.615189,76.942368 197.827957,74.720261 
	C197.405594,77.372955 197.100067,79.291779 196.600861,82.427193 
	C195.142349,77.035271 197.286499,71.550995 191.232971,67.829987 
	C191.232971,71.915535 191.550003,74.982742 191.138641,77.948929 
	C190.769897,80.607864 189.877167,83.305931 188.604935,85.656189 
	C188.246796,86.317810 185.058472,86.478210 184.331711,85.733360 
	C180.953308,82.270767 179.248459,83.578568 177.654510,87.288689 
	C176.956589,88.913170 175.690262,90.293449 174.312607,92.331017 
	C172.603394,90.822220 171.186172,89.571167 169.488617,87.717468 
	C169.479538,84.743050 169.750778,82.371284 170.369324,80.090981 
	C170.890152,81.117188 171.063675,82.051918 171.217010,83.354462 
	C171.836121,85.244034 172.475433,86.765800 173.654861,89.573212 
	C175.382019,86.233170 176.420303,84.225281 177.458603,82.217400 
	C178.473465,80.960449 179.488312,79.703499 180.328781,78.662537 
	C182.733200,79.855560 184.795227,80.878693 186.857269,81.901840 
	C187.361771,80.566414 188.144379,79.253189 188.253510,77.886192 
	C188.308105,77.202332 187.133606,76.420349 186.673325,75.871513 
	C187.019028,72.966660 187.284927,69.712868 187.818771,66.503639 
	C188.493256,62.448936 186.604279,59.530579 184.086624,56.710602 
	C181.966858,54.336304 179.131012,52.094978 181.186249,47.895039 
	C182.421707,48.905888 183.513763,49.799423 184.802368,50.853767 
	C185.958023,49.879017 187.098206,48.917297 188.574600,48.433548 
	C189.259354,51.606083 189.414902,54.344837 190.018448,56.981022 
	C190.489090,59.036610 191.516769,60.964668 192.296906,62.949398 
	C192.652634,62.788048 193.008362,62.626694 193.364090,62.465340 
	C193.007812,58.016209 192.651535,53.567074 192.295242,49.117939 
	C192.743927,48.458767 193.192627,47.799603 193.641327,47.140434 
	C194.143799,47.227440 194.646255,47.314445 195.148727,47.401455 
	C195.404343,50.229820 196.103668,53.101566 195.832199,55.878407 
	C195.025406,64.131165 197.387634,71.206024 202.859589,77.975632 
	C202.623856,79.054428 202.341171,79.517296 202.058487,79.980156 
z"/>
<path fill="#FAFCFB" opacity="1.000000" stroke="none" 
	d="
M170.996475,134.159790 
	C147.636444,134.110947 124.276421,134.062103 100.019127,134.016205 
	C97.075005,134.007538 95.028137,133.995895 92.981277,133.984253 
	C91.316216,133.289337 89.651161,132.594406 87.986099,131.899490 
	C88.007057,131.690857 88.028015,131.482239 88.048973,131.273605 
	C115.986580,131.273605 143.924194,131.273605 171.348007,131.273605 
	C172.353622,129.476883 173.040039,128.250473 173.726456,127.024071 
	C174.113434,128.228943 174.500427,129.433823 174.976395,130.915741 
	C178.421280,130.915741 182.399002,130.978973 186.373581,130.894302 
	C189.194443,130.834213 190.245987,132.100555 190.019821,134.853546 
	C189.780426,137.767731 188.355026,137.440109 185.966812,137.247055 
	C181.992355,136.925812 177.942505,137.607025 173.920242,137.734802 
	C173.292618,137.754730 172.642929,137.080368 172.110474,136.111160 
	C172.373367,135.115646 172.529251,134.736038 172.685135,134.356430 
	C172.122253,134.290878 171.559357,134.225327 170.996475,134.159790 
z"/>
<path fill="#E7EFEA" opacity="1.000000" stroke="none" 
	d="
M117.103973,63.637737 
	C116.059357,62.246250 115.014732,60.854759 113.970108,59.463268 
	C114.162491,59.262878 114.354866,59.062485 114.547249,58.862095 
	C115.494232,59.349136 116.441223,59.836178 117.527229,60.394718 
	C119.543320,56.842079 121.573997,53.263741 123.604675,49.685402 
	C124.034531,49.841217 124.464394,49.997032 124.894249,50.152843 
	C124.894249,52.388317 124.704971,54.645317 124.955971,56.852245 
	C125.146263,58.525299 125.897629,60.134541 126.399323,61.772179 
	C127.607689,61.342136 129.489609,61.236855 129.885773,60.415203 
	C130.740173,58.643200 131.795959,55.947502 131.036026,54.628201 
	C129.400681,51.789177 129.960602,49.657715 131.418442,47.288830 
	C131.466171,47.211281 131.687927,47.240829 132.370544,47.141926 
	C133.508560,51.754673 134.666122,56.446690 136.051880,62.063564 
	C140.741592,57.973030 137.437958,55.009544 137.294586,52.092712 
	C137.228683,50.751652 137.764450,49.381020 138.027405,48.023796 
	C138.818893,48.319363 139.610367,48.614929 140.746674,49.347759 
	C141.401474,50.051079 141.711456,50.317131 142.009399,50.542160 
	C141.997375,50.501133 141.978012,50.417847 141.741394,50.711491 
	C141.336670,52.663254 141.321808,54.355221 140.964722,55.971588 
	C140.423447,58.421799 140.190903,61.272457 138.725876,63.040337 
	C138.036530,63.872192 134.783386,62.579460 132.204193,62.172508 
	C129.788757,64.282753 126.825401,66.984619 123.085388,62.429016 
	C122.534409,61.121532 122.014023,60.156452 121.812195,59.782146 
	C120.271729,61.043644 118.687851,62.340691 117.103973,63.637737 
z"/>
<path fill="#E7EFEA" opacity="1.000000" stroke="none" 
	d="
M166.373566,86.026474 
	C164.257538,88.146469 162.141525,90.266457 160.025497,92.386444 
	C159.293167,91.920319 158.560852,91.454193 157.828522,90.988068 
	C167.789749,85.636292 164.957581,76.914993 164.951538,68.102173 
	C164.946030,67.032906 164.915390,66.792870 164.884766,66.552841 
	C164.154694,61.556225 163.254379,56.575386 162.789078,51.554234 
	C162.631241,49.851200 163.112885,47.186604 165.988876,50.598221 
	C166.144272,51.593403 166.264954,51.812737 166.429840,52.007744 
	C167.831863,50.807781 169.233887,49.607819 171.248169,47.883839 
	C172.018539,50.318958 172.841431,52.920116 173.323547,55.409035 
	C172.756805,55.691624 172.530807,56.086452 172.304810,56.481281 
	C173.099335,62.732517 173.893845,68.983749 174.808395,76.016220 
	C174.614655,78.254814 174.300858,79.712181 173.651062,81.013580 
	C173.129517,79.901077 172.943985,78.944542 172.791443,77.663979 
	C172.596420,76.743866 172.368393,76.147766 172.203125,75.407310 
	C172.265854,75.262955 172.069473,75.016907 172.117523,74.599396 
	C171.816666,72.269257 171.467743,70.356628 171.198044,68.204300 
	C171.182602,67.645851 171.087936,67.327110 171.047882,66.634521 
	C171.012741,65.512436 170.922974,64.764214 170.873444,63.751656 
	C170.849472,63.321037 170.785263,63.154751 170.747330,62.747322 
	C170.775330,62.144043 170.616180,61.878227 170.270493,61.764538 
	C170.244843,61.820351 170.366150,61.839787 170.382797,61.434258 
	C170.215515,59.690418 170.031586,58.352112 169.871613,56.636925 
	C169.235443,55.540367 168.575348,54.820690 167.915237,54.101017 
	C167.300690,54.776836 166.312775,55.376972 166.156937,56.145771 
	C165.907578,57.376080 166.210159,58.718262 166.262360,60.399471 
	C166.545563,62.853138 166.845856,64.920494 167.098587,67.379715 
	C167.333099,69.835953 167.615173,71.900330 167.813660,74.389259 
	C167.277924,78.551376 166.825745,82.288925 166.373566,86.026474 
z"/>
<path fill="#E7EFEA" opacity="1.000000" stroke="none" 
	d="
M141.978012,50.417847 
	C141.978012,50.417847 141.997375,50.501133 142.308365,50.174397 
	C142.536880,49.225018 142.454407,48.602379 142.371933,47.979736 
	C144.407532,48.805199 146.443146,49.630657 149.105301,50.710190 
	C149.410904,50.219074 150.156433,49.021038 150.901962,47.822998 
	C151.491547,47.952339 152.081131,48.081684 152.670700,48.211025 
	C152.989349,51.363552 153.136353,54.546215 153.682831,57.658737 
	C154.095123,60.006924 154.782913,62.372055 155.764618,64.541122 
	C157.704330,68.826904 159.932617,72.982079 162.007629,77.578537 
	C161.973679,77.965820 161.978897,77.968567 161.978897,77.968567 
	C159.801117,74.852776 157.623337,71.736984 155.445557,68.621193 
	C155.100998,68.653564 154.756424,68.685936 154.411865,68.718307 
	C154.411865,74.466599 154.411865,80.214882 154.411865,85.963173 
	C153.984924,85.957085 153.557999,85.950996 153.131058,85.944901 
	C153.131058,83.920288 153.307648,81.869774 153.016907,79.887810 
	C152.936081,79.336761 151.470825,78.988800 150.327576,78.792137 
	C150.006104,78.611954 149.997787,78.187309 150.405563,77.399689 
	C151.459305,75.939903 152.648895,74.842598 152.647934,73.746330 
	C152.639832,64.390327 148.921295,56.645741 141.978012,50.417847 
z"/>
<path fill="#E4EDE8" opacity="1.000000" stroke="none" 
	d="
M202.120911,80.303665 
	C202.341171,79.517296 202.623856,79.054428 202.949753,78.315987 
	C203.314606,74.746956 204.057526,71.428596 203.864609,68.165573 
	C203.528915,62.488041 202.556320,56.850555 201.993179,51.182129 
	C201.876328,50.005920 202.380402,48.768028 202.598312,47.558567 
	C203.248566,47.492062 203.898819,47.425552 204.549057,47.359047 
	C204.980453,50.054115 205.561356,52.735329 205.812653,55.447086 
	C206.364670,61.403831 206.979462,67.370720 207.117386,73.343895 
	C207.200439,76.940872 206.969284,80.721680 205.922287,84.125511 
	C204.464615,88.864494 200.619064,91.058830 195.034241,91.224022 
	C197.740875,88.880989 200.111649,86.993355 202.276718,84.893631 
	C203.606110,83.604340 204.731857,81.987221 202.120911,80.303665 
z"/>
<path fill="#0D6D34" opacity="1.000000" stroke="none" 
	d="
M84.093735,73.971336 
	C84.496376,70.615295 84.899017,67.259254 85.881104,63.787655 
	C86.644096,63.702099 86.827644,63.732098 87.011200,63.762100 
	C91.594017,66.736855 93.719536,65.446503 94.929901,59.086044 
	C95.631630,58.998123 95.767525,59.122501 95.903419,59.246883 
	C96.128487,63.073597 96.353554,66.900314 96.555153,70.328003 
	C93.652206,69.546768 91.276649,68.422806 88.991943,68.584305 
	C88.295380,68.633545 86.902679,72.677422 87.566467,74.053848 
	C88.173698,75.312996 91.128220,75.440155 94.098816,76.408615 
	C91.446915,78.283989 89.018272,80.529694 86.163033,81.859276 
	C83.727692,82.993317 81.485519,81.623138 81.100853,78.800316 
	C80.666351,75.611847 79.116684,77.225159 77.373405,77.877762 
	C77.352837,75.308182 78.780136,74.176132 82.120216,75.051651 
	C83.433159,75.299080 84.126823,75.411049 84.820496,75.523018 
	C84.578247,75.005791 84.335991,74.488564 84.093735,73.971336 
z"/>
<path fill="#0D6D34" opacity="1.000000" stroke="none" 
	d="
M76.767860,78.205750 
	C76.727722,81.295601 76.438622,84.580528 76.212601,88.165146 
	C75.142693,89.617500 74.009689,90.770172 72.109177,92.703682 
	C71.719818,88.060249 70.917793,84.663078 71.424026,81.473557 
	C71.624321,80.211563 74.733948,79.411324 76.767860,78.205750 
z"/>
<path fill="#19723C" opacity="1.000000" stroke="none" 
	d="
M90.109772,50.046928 
	C90.843254,53.961098 91.264977,57.737915 91.682953,61.515091 
	C88.172112,61.233673 87.660164,60.458691 87.014778,55.995216 
	C86.776649,54.348339 85.832390,52.803570 84.860275,51.739594 
	C84.322166,52.232872 84.133987,52.198784 83.945816,52.164696 
	C83.873314,51.776100 83.800812,51.387505 83.673645,50.703323 
	C84.609032,49.640762 85.599083,48.873783 86.666122,48.047161 
	C87.585670,48.593983 88.691833,49.251778 90.109772,50.046928 
z"/>
<path fill="#DFE9E3" opacity="1.000000" stroke="none" 
	d="
M106.567429,57.998837 
	C105.997505,57.699421 105.421265,56.946796 105.480843,56.892559 
	C107.350830,55.190083 109.800537,53.890366 108.383537,50.532482 
	C108.162003,50.007519 109.383591,48.538738 110.246605,48.024651 
	C110.715652,47.745247 112.455467,48.438702 112.543541,48.899502 
	C112.799561,50.238979 113.039497,52.103073 112.326942,52.997925 
	C110.827934,54.880451 108.717186,56.275860 106.567429,57.998837 
z"/>
<path fill="#177139" opacity="1.000000" stroke="none" 
	d="
M192.018036,49.165070 
	C192.651535,53.567074 193.007812,58.016209 193.364090,62.465340 
	C193.008362,62.626694 192.652634,62.788048 192.296906,62.949398 
	C191.516769,60.964668 190.489090,59.036610 190.018448,56.981022 
	C189.414902,54.344837 189.259354,51.606083 188.863663,48.487541 
	C189.791290,48.446442 190.766052,48.829319 192.018036,49.165070 
z"/>
<path fill="#0E703A" opacity="1.000000" stroke="none" 
	d="
M173.987061,81.169548 
	C174.300858,79.712181 174.614655,78.254814 174.974091,76.395065 
	C175.630936,77.902534 176.242111,79.812401 177.155945,81.969833 
	C176.420303,84.225281 175.382019,86.233170 173.654861,89.573212 
	C172.475433,86.765800 171.836121,85.244034 171.528687,83.341820 
	C172.569412,82.364098 173.278244,81.766823 173.987061,81.169548 
z"/>
<path fill="#C9DAD0" opacity="1.000000" stroke="none" 
	d="
M77.887360,61.152332 
	C77.900391,61.626587 77.913422,62.100845 77.887817,62.928902 
	C76.210808,63.960537 74.572433,64.638374 72.093758,65.663864 
	C71.480171,64.247917 70.656296,62.346706 69.418335,59.489948 
	C71.708122,60.591209 72.756935,61.095631 74.372765,61.277054 
	C75.922310,61.020142 76.904831,61.086239 77.887360,61.152332 
z"/>
<path fill="#09692C" opacity="1.000000" stroke="none" 
	d="
M117.248962,63.939964 
	C118.687851,62.340691 120.271729,61.043644 121.812195,59.782146 
	C122.014023,60.156452 122.534409,61.121532 122.882050,62.703377 
	C122.352982,63.600677 121.996651,63.881210 121.640335,64.161743 
	C121.322205,66.148178 121.004074,68.134613 120.193741,70.507385 
	C119.334129,70.891624 118.966728,70.889534 118.599319,70.887444 
	C118.400993,70.140099 118.202667,69.392746 117.916245,68.358383 
	C117.683426,66.794975 117.538696,65.518585 117.248962,63.939964 
z"/>
<path fill="#09692C" opacity="1.000000" stroke="none" 
	d="
M166.654449,86.109718 
	C166.825745,82.288925 167.277924,78.551376 168.067657,74.656487 
	C168.944153,76.332603 169.483078,78.166061 170.022018,79.999512 
	C169.750778,82.371284 169.479538,84.743050 169.236633,87.517365 
	C168.488419,87.344254 167.711868,86.768600 166.654449,86.109718 
z"/>
<path fill="#E3ECE7" opacity="1.000000" stroke="none" 
	d="
M80.775772,48.478821 
	C81.279678,51.610859 81.542053,54.897095 81.804428,58.183331 
	C81.286812,58.275112 80.769196,58.366898 80.251579,58.458679 
	C79.833519,56.252853 79.415451,54.047028 79.001709,51.433460 
	C79.515434,50.228153 80.024841,49.430584 80.775772,48.478821 
z"/>
<path fill="#E3ECE7" opacity="1.000000" stroke="none" 
	d="
M77.918762,60.721100 
	C76.904831,61.086239 75.922310,61.020142 74.568390,60.961288 
	C74.268692,60.494682 74.340385,60.020836 74.668289,59.062035 
	C75.019196,58.328796 75.017448,58.081196 74.919250,57.834270 
	C75.014946,57.033604 75.110649,56.232941 75.429405,55.224899 
	C76.418365,56.774967 77.184265,58.532413 77.918762,60.721100 
z"/>
<path fill="#E3ECE7" opacity="1.000000" stroke="none" 
	d="
M81.308365,66.170609 
	C81.717628,67.690979 82.387772,69.396423 83.047104,71.498672 
	C80.172256,70.677834 82.168335,68.173119 81.308365,66.170609 
z"/>
<path fill="#00672A" opacity="1.000000" stroke="none" 
	d="
M93.263290,134.228485 
	C95.028137,133.995895 97.075005,134.007538 99.554924,134.090485 
	C97.840424,134.265427 95.692871,134.369064 93.263290,134.228485 
z"/>
<path fill="#C9DAD0" opacity="1.000000" stroke="none" 
	d="
M69.898834,57.578667 
	C69.891579,57.377247 69.919701,57.240910 69.947823,57.104568 
	C70.026291,57.202187 70.156128,57.295013 70.165817,57.399040 
	C70.172691,57.472775 70.017227,57.561638 69.898834,57.578667 
z"/>
<path fill="#E7EFEA" opacity="1.000000" stroke="none" 
	d="
M161.974762,77.968216 
	C162.282394,78.356285 162.588974,78.741943 162.895538,79.127609 
	C162.769150,78.677185 162.642776,78.226768 162.247650,77.872452 
	C161.978897,77.968567 161.973679,77.965820 161.974762,77.968216 
z"/>
<path fill="#E3ECE7" opacity="1.000000" stroke="none" 
	d="
M83.786865,73.971336 
	C84.335991,74.488564 84.578247,75.005791 84.820496,75.523018 
	C84.126823,75.411049 83.433159,75.299080 82.444023,75.072357 
	C81.980064,74.598198 82.065178,74.315002 82.635132,74.033493 
	C83.070915,73.963074 83.275452,73.967209 83.786865,73.971336 
z"/>
<path fill="#DFE9E3" opacity="1.000000" stroke="none" 
	d="
M156.106155,92.309280 
	C155.719925,92.286041 155.333694,92.262802 154.947464,92.239571 
	C155.159744,91.865425 155.372025,91.491280 155.824280,91.429878 
	C156.078201,91.931503 156.092178,92.120392 156.106155,92.309280 
z"/>
<path fill="#00672A" opacity="1.000000" stroke="none" 
	d="
M171.028320,134.418610 
	C171.559357,134.225327 172.122253,134.290878 172.685135,134.356430 
	C172.529251,134.736038 172.373367,135.115646 172.028351,135.743011 
	C171.579514,135.552994 171.319824,135.115219 171.028320,134.418610 
z"/>
<path fill="#E7EFEA" opacity="1.000000" stroke="none" 
	d="
M156.334290,92.408356 
	C156.092178,92.120392 156.078201,91.931503 156.036774,91.459839 
	C157.180359,91.188484 158.351395,91.199905 158.815384,91.623306 
	C157.882141,92.059143 157.655945,92.082993 157.429764,92.106842 
	C157.218430,92.408737 156.929321,92.542267 156.334290,92.408356 
z"/>
<path fill="#0D6F38" opacity="1.000000" stroke="none" 
	d="
M142.089066,48.117523 
	C142.454407,48.602379 142.536880,49.225018 142.320389,50.215424 
	C141.711456,50.317131 141.401474,50.051079 141.016602,49.471672 
	C141.229874,48.857315 141.518036,48.556313 142.089066,48.117523 
z"/>
<path fill="#0D6D34" opacity="1.000000" stroke="none" 
	d="
M77.106712,88.754684 
	C77.321815,88.700478 77.688316,88.949875 78.180817,89.544540 
	C77.957245,89.612633 77.607681,89.335464 77.106712,88.754684 
z"/>
<path fill="#C9DAD0" opacity="1.000000" stroke="none" 
	d="
M74.789307,57.987049 
	C75.017448,58.081196 75.019196,58.328796 74.819328,58.734009 
	C74.517899,58.653606 74.499641,58.403233 74.789307,57.987049 
z"/>
<path fill="#DFE9E3" opacity="1.000000" stroke="none" 
	d="
M157.589417,92.218788 
	C157.655945,92.082993 157.882141,92.059143 158.446899,92.027939 
	C158.440002,92.123970 158.094528,92.227348 157.589417,92.218788 
z"/>
<path fill="#DFE9E3" opacity="1.000000" stroke="none" 
	d="
M166.454224,51.809406 
	C166.264954,51.812737 166.144272,51.593403 166.037781,51.163074 
	C166.236160,51.134960 166.393112,51.346512 166.454224,51.809406 
z"/>
<path fill="#DFE9E3" opacity="1.000000" stroke="none" 
	d="
M165.165421,48.864441 
	C165.116486,48.821850 165.214355,48.907036 165.165421,48.864441 
z"/>
<path fill="#19723C" opacity="1.000000" stroke="none" 
	d="
M83.564735,50.093288 
	C83.376099,50.081490 83.175095,49.810638 82.958817,49.278706 
	C83.146484,49.289829 83.349426,49.562035 83.564735,50.093288 
z"/>
<path fill="#DFE9E3" opacity="1.000000" stroke="none" 
	d="
M164.799759,66.731140 
	C164.915390,66.792870 164.946030,67.032906 164.987976,67.635689 
	C164.904449,67.635445 164.809601,67.272446 164.799759,66.731140 
z"/>
<path fill="#177139" opacity="1.000000" stroke="none" 
	d="
M79.767334,86.428970 
	C78.959221,84.904991 78.412514,83.674377 77.865807,82.443771 
	C85.917885,90.316986 90.851776,82.430573 96.562820,79.209175 
	C95.508049,86.034477 86.838577,89.904709 79.767334,86.428970 
z"/>
<path fill="#E3ECE7" opacity="1.000000" stroke="none" 
	d="
M83.115311,59.012783 
	C83.561218,57.917625 84.029266,57.171329 84.497314,56.425030 
	C84.883919,56.500809 85.270531,56.576588 85.657135,56.652363 
	C85.546188,57.873329 85.435242,59.094292 85.324287,60.315254 
	C84.595345,59.997387 83.866394,59.679516 83.115311,59.012783 
z"/>
<path fill="#E3ECE7" opacity="1.000000" stroke="none" 
	d="
M95.936279,58.858650 
	C95.767525,59.122501 95.631630,58.998123 95.223984,58.823647 
	C94.313210,57.531750 93.674187,56.289955 93.035172,55.048164 
	C93.635735,54.820011 94.236305,54.591854 94.836868,54.363701 
	C95.214294,55.732605 95.591713,57.101509 95.936279,58.858650 
z"/>
<path fill="#E3ECE7" opacity="1.000000" stroke="none" 
	d="
M83.949768,52.435246 
	C84.133987,52.198784 84.322166,52.232872 84.739807,52.094826 
	C84.801750,52.573784 84.634239,53.224880 84.466728,53.875977 
	C84.295731,53.485916 84.124725,53.095856 83.949768,52.435246 
z"/>
<path fill="#E3ECE7" opacity="1.000000" stroke="none" 
	d="
M86.998474,63.565796 
	C86.827644,63.732098 86.644096,63.702099 86.219574,63.531464 
	C86.314316,63.383713 86.650040,63.376598 86.998474,63.565796 
z"/>
<path fill="#0D6F38" opacity="1.000000" stroke="none" 
	d="
M121.768318,64.508415 
	C121.996651,63.881210 122.352982,63.600677 122.912643,63.045784 
	C126.825401,66.984619 129.788757,64.282753 132.204193,62.172508 
	C134.783386,62.579460 138.036530,63.872192 138.725876,63.040337 
	C140.190903,61.272457 140.423447,58.421799 140.964722,55.971588 
	C141.321808,54.355221 141.336670,52.663254 141.741394,50.711491 
	C148.921295,56.645741 152.639832,64.390327 152.647934,73.746330 
	C152.648895,74.842598 151.459305,75.939903 150.407898,77.081085 
	C146.122726,76.905838 142.251297,76.686241 139.131607,76.509285 
	C141.849091,73.690193 144.343765,71.102242 146.838440,68.514290 
	C144.796295,67.348549 142.358292,64.881638 140.813751,65.351532 
	C138.947952,65.919167 137.839294,68.975510 136.684769,70.566391 
	C133.383743,73.200699 130.209473,75.733841 127.177032,78.588844 
	C127.318855,78.910698 127.382118,78.863197 127.382111,78.863197 
	C125.553513,74.193832 123.724915,69.524460 121.768318,64.508415 
z"/>
<path fill="#0F6F38" opacity="1.000000" stroke="none" 
	d="
M118.384598,71.172775 
	C118.966728,70.889534 119.334129,70.891624 120.252594,70.884796 
	C124.611938,80.179916 123.224449,85.142570 115.733040,88.159668 
	C114.318298,88.729439 112.539879,88.396248 110.705017,87.783340 
	C115.360985,82.932434 121.759834,79.507240 118.384598,71.172775 
z"/>
<path fill="#19723C" opacity="1.000000" stroke="none" 
	d="
M127.286194,78.933006 
	C130.148056,79.361610 133.042587,79.767914 136.052322,80.190384 
	C134.558670,82.397804 133.230698,84.360352 131.692947,86.632965 
	C128.321259,85.845032 126.851456,83.240311 127.101486,79.197556 
	C127.382118,78.863197 127.318855,78.910698 127.286194,78.933006 
z"/>
<path fill="#016C35" opacity="1.000000" stroke="none" 
	d="
M170.369324,80.090981 
	C169.483078,78.166061 168.944153,76.332603 168.151230,74.231926 
	C167.615173,71.900330 167.333099,69.835953 167.300385,67.088234 
	C167.126297,64.274307 166.702881,62.143730 166.279449,60.013153 
	C166.210159,58.718262 165.907578,57.376080 166.156937,56.145771 
	C166.312775,55.376972 167.300690,54.776836 167.915237,54.101017 
	C168.575348,54.820690 169.235443,55.540367 169.671906,56.921913 
	C169.754227,59.002453 170.060196,60.421120 170.366150,61.839787 
	C170.366150,61.839787 170.244843,61.820351 170.254333,62.000877 
	C170.317703,62.506245 170.470123,62.775269 170.721069,62.988468 
	C170.785263,63.154751 170.849472,63.321037 170.692993,63.976791 
	C170.645966,65.313629 170.819626,66.160995 170.993271,67.008369 
	C171.087936,67.327110 171.182602,67.645851 171.164825,68.652069 
	C171.391403,71.231995 171.730438,73.124451 172.069473,75.016907 
	C172.069473,75.016907 172.265854,75.262955 172.174042,75.734718 
	C172.307648,76.800323 172.533051,77.394165 172.758453,77.987999 
	C172.943985,78.944542 173.129517,79.901077 173.651062,81.013580 
	C173.278244,81.766823 172.569412,82.364098 171.548889,82.974014 
	C171.063675,82.051918 170.890152,81.117188 170.369324,80.090981 
z"/>
<path fill="#0E703A" opacity="1.000000" stroke="none" 
	d="
M166.262360,60.399467 
	C166.702881,62.143730 167.126297,64.274307 167.347931,66.696365 
	C166.845856,64.920494 166.545563,62.853138 166.262360,60.399467 
z"/>
<path fill="#0E703A" opacity="1.000000" stroke="none" 
	d="
M172.117523,74.599396 
	C171.730438,73.124451 171.391403,71.231995 171.085602,68.891769 
	C171.467743,70.356628 171.816666,72.269257 172.117523,74.599396 
z"/>
<path fill="#0E703A" opacity="1.000000" stroke="none" 
	d="
M170.382797,61.434258 
	C170.060196,60.421120 169.754227,59.002453 169.647949,57.298798 
	C170.031586,58.352112 170.215515,59.690418 170.382797,61.434258 
z"/>
<path fill="#0E703A" opacity="1.000000" stroke="none" 
	d="
M171.047882,66.634521 
	C170.819626,66.160995 170.645966,65.313629 170.652771,64.241119 
	C170.922974,64.764214 171.012741,65.512436 171.047882,66.634521 
z"/>
<path fill="#0E703A" opacity="1.000000" stroke="none" 
	d="
M172.791443,77.663979 
	C172.533051,77.394165 172.307648,76.800323 172.111313,75.879074 
	C172.368393,76.147766 172.596420,76.743866 172.791443,77.663979 
z"/>
<path fill="#016C35" opacity="1.000000" stroke="none" 
	d="
M172.549652,56.310570 
	C172.530807,56.086452 172.756805,55.691624 173.115189,55.523979 
	C173.096558,55.880730 172.945526,56.010296 172.549652,56.310570 
z"/>
<path fill="#0E703A" opacity="1.000000" stroke="none" 
	d="
M170.747330,62.747322 
	C170.470123,62.775269 170.317703,62.506245 170.279968,61.945061 
	C170.616180,61.878227 170.775330,62.144043 170.747330,62.747322 
z"/>
</svg>